<?xml version="1.0" encoding="UTF-8"?>
<!DOCTYPE svg PUBLIC "-//W3C//DTD SVG 1.1//EN" "http://www.w3.org/Graphics/SVG/1.1/DTD/svg11.dtd">
<!-- Creator: CorelDRAW X7 -->
<svg xmlns="http://www.w3.org/2000/svg" xml:space="preserve" width="40px" height="20px" version="1.1" style="shape-rendering:geometricPrecision; text-rendering:geometricPrecision; image-rendering:optimizeQuality; fill-rule:evenodd; clip-rule:evenodd"
viewBox="0 0 1181 591"
 xmlns:xlink="http://www.w3.org/1999/xlink">
 <defs>
  <style type="text/css">
   <![CDATA[
    .fil0 {fill:#FFAA00}
   ]]>
  </style>
 </defs>
 <g id="Слой_x0020_1">
  <metadata id="CorelCorpID_0Corel-Layer"/>
  <path class="fil0" d="M422 163c95,0 184,13 269,37 32,9 224,67 224,93 0,17 -15,20 -26,25 -14,7 -4,2 -14,7 -66,35 -212,78 -282,87l-89 13c-8,0 -3,-1 -13,1l-64 2 0 -249c0,-20 1,-2 -5,-16zm-42 16l0 233c0,20 -2,2 5,16 -50,0 -119,10 -119,-16 0,-279 -18,-250 52,-249 22,0 45,0 67,0 -3,6 -5,6 -5,16zm-156 280c0,0 64,9 118,9l186 -7c63,-8 120,-17 187,-35 45,-12 92,-23 136,-42l53 -24c35,-18 53,-26 53,-72 0,-44 -58,-62 -91,-75l-151 -52c-177,-44 -447,-36 -491,-27 0,0 0,325 0,325z"/>
 </g>
</svg>
