<?xml version="1.0" encoding="UTF-8"?>
<!DOCTYPE svg PUBLIC "-//W3C//DTD SVG 1.1//EN" "http://www.w3.org/Graphics/SVG/1.1/DTD/svg11.dtd">
<!-- Creator: CorelDRAW X7 -->
<svg xmlns="http://www.w3.org/2000/svg" xml:space="preserve" width="46px" height="20px" version="1.1" style="shape-rendering:geometricPrecision; text-rendering:geometricPrecision; image-rendering:optimizeQuality; fill-rule:evenodd; clip-rule:evenodd"
viewBox="0 0 46 20"
 xmlns:xlink="http://www.w3.org/1999/xlink">
 <defs>
  <style type="text/css">
   <![CDATA[
    .fil0 {fill:#FFAA00}
   ]]>
  </style>
 </defs>
 <g id="Слой_x0020_1">
  <metadata id="CorelCorpID_0Corel-Layer"/>
  <path class="fil0" d="M32 17l-5 0c0,0 0,0 0,0 0,0 0,0 0,0l-7 0c0,0 0,0 0,0l-2 0c0,0 0,0 -1,0l-8 0c-1,0 -1,0 -1,-1l0 -13 24 0c3,0 2,0 4,1l2 0 0 12c-2,1 -4,1 -5,1l-1 0 0 0 0 0zm-30 0l0 -13c0,-1 0,-1 0,-1 2,0 1,1 2,2 0,0 0,0 0,0 2,0 2,0 3,0l0 11 -2 0 0 -9c0,-1 -2,-2 -2,1l0 8c0,1 0,1 -1,1l0 0 0 0zm43 -12l0 10c0,1 0,0 0,1 -2,0 -5,0 -5,-1 0,-12 -1,-10 2,-10 1,0 2,0 3,0 0,0 0,0 0,0zm-45 -1l0 12c0,3 4,3 5,1 1,0 1,0 1,0 1,2 1,2 2,2l22 0c3,0 4,0 8,-1 2,-1 2,-1 2,-1 1,0 5,0 5,0 0,0 1,0 1,-1 0,-2 0,-10 0,-12 0,0 -1,-1 -1,-1 -2,0 -2,0 -5,0 -2,0 -3,-1 -5,-1 -3,-1 -23,0 -27,-1 -1,0 -2,1 -2,2l-1 0c-1,-3 -5,-2 -5,1l0 0 0 0z"/>
 </g>
</svg>
