<?xml version="1.0" encoding="UTF-8"?>
<!DOCTYPE svg PUBLIC "-//W3C//DTD SVG 1.1//EN" "http://www.w3.org/Graphics/SVG/1.1/DTD/svg11.dtd">
<!-- Creator: CorelDRAW X7 -->
<svg xmlns="http://www.w3.org/2000/svg" xml:space="preserve" width="64px" height="20px" version="1.1" style="shape-rendering:geometricPrecision; text-rendering:geometricPrecision; image-rendering:optimizeQuality; fill-rule:evenodd; clip-rule:evenodd"
viewBox="0 0 1890 591"
 xmlns:xlink="http://www.w3.org/1999/xlink">
 <defs>
  <style type="text/css">
   <![CDATA[
    .fil0 {fill:#FFAA00}
   ]]>
  </style>
 </defs>
 <g id="Слой_x0020_1">
  <metadata id="CorelCorpID_0Corel-Layer"/>
  <path class="fil0" d="M99 334l54 -1 1 145c-8,3 -15,4 -26,7 -9,2 -20,4 -28,9l-1 -160zm275 53c8,-1 14,-2 24,-4 11,-1 15,1 24,-4 2,10 -3,18 -6,28 -4,10 -5,19 -11,29 -17,-5 -34,-2 -40,-9 -11,-10 5,-29 9,-40zm238 40c-10,12 -14,26 -24,38 -82,1 -60,9 -97,-27 10,-11 10,-26 20,-42 3,18 -1,22 15,38 10,10 28,-2 24,-18 -1,-5 -2,-3 -4,-9 -4,-11 2,0 -4,-11 32,-18 59,20 70,31zm27 22l0 0zm-190 -175l1 -21 23 2c9,1 15,1 22,2l-1 16 -45 1zm225 194l-1 -43 72 -22c10,-3 16,-3 24,-5l2 69 -97 1zm-31 -195c-5,-5 -3,-7 -4,-14 11,-6 20,-3 35,-4 1,0 2,0 3,0l30 1c11,-1 6,1 14,-3 23,28 -24,21 -36,21 -6,0 -39,1 -42,-1zm62 -142l-15 20c-18,-1 -17,-1 -29,-20 10,-29 34,-29 44,0zm22 75c-1,2 -1,12 -2,16l-84 1c-1,-5 -1,-15 -2,-17 -10,-10 -42,-4 -55,-6l-1 -31c15,-3 33,-2 49,-2 28,0 36,29 75,10 14,-7 10,-9 25,-10 13,0 39,-1 51,2l1 31c-15,2 -47,-4 -57,6zm146 68l-1 -19c15,-3 12,2 26,0 22,-2 22,2 44,0 29,-3 50,0 70,0 5,0 4,0 7,0 1,0 2,0 2,0l27 0c25,1 13,-3 53,1l77 0c53,-4 255,0 305,0 35,0 67,0 102,0 9,0 16,0 24,0l78 -1 1 18 -815 1zm848 -50l14 1 1 78 -14 0 -1 -79zm50 50l-1 -19c5,-1 15,-4 18,0 6,5 3,10 5,18l-22 1zm-1132 175c4,20 -6,33 11,51 0,0 141,5 148,-2 13,-23 1,-73 7,-99 8,-2 13,-4 22,-4l181 -13c11,0 12,-1 22,-2l47 -3c61,-4 48,-44 53,-69l557 -1c6,36 -3,28 55,29 33,0 24,-4 29,-28 45,-9 53,20 54,-51 0,-42 -12,-33 -54,-34 -6,-27 8,-31 -42,-31 -48,0 -36,1 -42,32l-812 -1c-8,-15 0,-23 -24,-23 -12,1 -24,4 -35,-3l-1 -26c9,-5 16,-4 25,-4 11,1 13,4 24,12 26,17 21,15 49,15 23,0 79,3 99,-3 4,-12 10,-112 -2,-122 -9,-5 -14,-3 -24,-3l-73 0c-26,0 -23,-2 -49,15 -14,10 -19,16 -48,10 -3,-15 4,-9 -11,-24 -8,2 -12,1 -20,7l-2 20c-47,-9 -42,10 -73,-10 -12,-7 -16,-7 -27,-7 -10,0 -14,0 -24,6 -15,9 -8,10 -24,10 -18,0 -35,-3 -51,0l-2 -19c-9,-6 -12,-5 -20,-7 -9,9 -9,10 -14,18 -7,-5 -43,-19 -55,-19 -121,-3 -123,-6 -123,65 0,67 6,63 68,63 49,0 47,5 84,-8 10,-3 19,-8 29,-11l1 22c-20,11 -41,-3 -52,7 -11,9 -2,5 -9,18 -23,4 -46,-4 -71,4 -8,26 0,51 -4,75 -29,-5 -327,0 -330,1 -16,5 -20,17 -21,32l0 126c0,79 13,72 77,56 63,-16 38,-11 46,-53l80 -11c40,1 18,48 68,56 14,2 26,3 40,4 29,3 60,12 80,0 16,-10 20,-29 24,-41 34,34 20,28 86,28 66,0 37,-12 73,-50z"/>
 </g>
</svg>
